<svg width="25" height="25" viewBox="0 0 25 25" fill="none" xmlns="http://www.w3.org/2000/svg">
<path fill-rule="evenodd" clip-rule="evenodd" d="M16.7039 0.0244769C16.7221 -0.0014862 16.7579 -0.00779593 16.7839 0.0103837L18.559 1.25335C18.585 1.27153 18.5913 1.30731 18.5731 1.33327L16.1024 4.86176C17.3035 5.24549 18.1219 5.65941 18.1219 5.65941C18.1219 5.65941 16.1216 9.1 12.7291 9.1C9.33648 9.1 6.92575 5.89331 6.92575 5.89331C6.92575 5.89331 7.78055 5.34779 9.04766 4.87992L6.33766 1.6503C6.31729 1.62602 6.32047 1.58982 6.34474 1.56945L8.00477 0.176499C8.02909 0.156126 8.06527 0.159293 8.08563 0.183573L11.5169 4.27284C11.8107 4.23961 12.1101 4.22103 12.4121 4.22103C12.8463 4.22103 13.2799 4.25404 13.7032 4.31004L16.7039 0.0244769ZM17.3751 9.26294C18.2805 8.61635 19.6504 6.92872 19.6504 6.92872C19.6504 6.92872 23.1497 9.70171 23.1497 15.5815C23.1497 21.4612 17.1 25 17.1 25C17.1 25 14.2096 22.081 13.5 18.3807C12.7904 14.6804 14.5496 10.5716 14.5496 10.5716C14.5496 10.5716 16.4697 9.90953 17.3751 9.26294V9.26294ZM7.62483 9.26294C6.7195 8.61635 5.34955 6.92872 5.34955 6.92872C5.34955 6.92872 1.85028 9.70171 1.85028 15.5815C1.85028 21.4612 7.89998 25 7.89998 25C7.89998 25 10.7904 22.081 11.5 18.3807C12.2095 14.6804 10.4504 10.5716 10.4504 10.5716C10.4504 10.5716 8.53022 9.90953 7.62483 9.26294V9.26294Z" fill="#17171B"/>
</svg>
