<svg width="25" height="25" viewBox="0 0 25 25" fill="none" xmlns="http://www.w3.org/2000/svg">
<path d="M9.50542 5.20471C9.18497 5.08001 8.89001 4.89782 8.63504 4.66711C8.43067 4.47663 8.20697 4.28652 8.32506 3.95254C8.35772 3.86017 8.28087 3.84023 8.22725 3.80257C7.57251 3.34267 7.58124 2.49269 8.23933 2.02327C8.46412 1.87219 8.72017 1.77391 8.98831 1.73577C9.12487 1.71127 9.26589 1.70139 9.23446 1.49835C9.23344 1.47442 9.23738 1.45053 9.24604 1.42819C9.2547 1.40586 9.26788 1.38555 9.28476 1.36855C9.50041 1.16385 9.68906 0.871861 9.94702 0.782044C10.6147 0.549573 11.2079 0.10727 11.9473 0.0712917C12.3417 0.0520943 12.7338 -0.0159406 13.1308 0.0034363C13.4556 0.0192898 13.7073 0.141344 13.8266 0.4692C13.9123 0.704654 14.0138 0.934333 14.0991 1.16992C14.2163 1.49349 14.3062 1.8172 14.5205 2.10993C14.7756 2.45854 14.7451 2.9195 14.8426 3.33063C14.8756 3.45173 14.8964 3.57582 14.9047 3.70106C14.9285 4.45294 15.4241 4.8201 16.0325 5.09485C16.2437 5.19024 16.4678 5.15408 16.6886 5.13458C17.1697 5.08996 17.6548 5.13986 18.1167 5.28149C18.6024 5.43071 18.9498 5.76214 19.241 6.15309C19.877 7.00665 20.7806 7.50687 21.6812 8.00273C22.0122 8.18496 22.3428 8.3557 22.6279 8.60573C22.7748 8.72672 22.8828 8.88824 22.9386 9.07017C22.9944 9.25211 22.9954 9.44642 22.9415 9.62893C22.8315 10.057 22.7596 10.4948 22.5954 10.9116C22.4148 11.3698 22.1117 11.6624 21.6705 11.883C21.164 12.1363 20.7054 12.4801 20.1809 12.7114C19.7991 12.873 19.4051 13.0045 19.0028 13.1046C18.6466 13.199 18.4248 13.3843 18.3698 13.754C18.3332 14.0004 18.1851 14.1445 17.9519 14.2202C17.5566 14.3487 17.5686 14.3465 17.7649 14.7246C18.1374 15.4425 18.5333 16.1493 18.5746 16.9928C18.5943 17.395 18.8329 17.7256 19.1321 17.9783C19.7431 18.4943 20.001 19.1595 20.0492 19.9338C20.0653 20.1934 19.9932 20.448 20.0428 20.7115C20.0819 20.9196 20.1389 21.1052 20.3009 21.2443C20.567 21.4725 20.6724 21.7666 20.7086 22.1085C20.7404 22.3975 20.8603 22.6696 21.0521 22.8881C21.3501 23.2402 21.5537 23.6602 21.8334 24.0309C22.0812 24.3591 21.7479 24.8276 21.3121 24.8163C20.852 24.8042 20.4012 24.886 19.9479 24.9406C19.7927 24.9593 19.6361 24.9181 19.4951 24.931C19.0215 24.9744 18.569 24.9119 18.1021 24.8476C17.8659 24.815 17.5772 25.0254 17.2787 24.9974C17.1261 24.9767 16.984 24.9082 16.8727 24.8018C16.7613 24.6954 16.6866 24.5565 16.659 24.405C16.6345 24.2705 16.6593 24.1317 16.7289 24.0141C16.7985 23.8965 16.9082 23.8079 17.0379 23.7647C17.3891 23.6485 17.5353 23.4025 17.5932 23.0623C17.7498 22.1428 17.7352 22.1108 16.9307 21.626C16.6903 21.4812 16.441 21.3575 16.1882 21.2369C15.8187 21.0604 15.5831 20.7721 15.5161 20.3572C15.4545 19.9861 15.4168 19.6114 15.4034 19.2355C15.3935 18.9228 15.2669 18.7004 14.9593 18.5591C14.2112 18.2157 13.6606 17.6298 13.1783 16.9846C12.9581 16.6899 12.71 16.5298 12.3397 16.5054C11.929 16.4784 11.5154 16.4699 11.1151 16.3202C10.855 16.2229 10.5304 16.4021 10.3822 16.6638C9.9111 17.4955 9.23402 18.0769 8.32889 18.3959C7.95857 18.5264 7.87859 18.6381 8.05942 18.975C8.48342 19.7648 8.28047 20.3929 7.67154 20.9682C7.54244 21.0989 7.43267 21.2474 7.34556 21.4091C7.14041 21.7641 7.23745 22.1961 7.61806 22.55C7.69679 22.6138 7.75386 22.7004 7.78147 22.7979C7.80908 22.8954 7.80587 22.9991 7.77228 23.0947C7.68092 23.419 7.53713 23.7083 7.22439 23.877C7.08887 23.9526 6.97029 24.0551 6.87599 24.1783C6.48514 24.673 5.95147 24.7441 5.41036 24.5872C5.00914 24.4709 4.61243 24.5131 4.21786 24.4847C3.67107 24.4454 3.12415 24.4135 2.58107 24.3383C2.1806 24.2829 1.98335 23.9202 2.14475 23.5684C2.24361 23.3529 2.44687 23.3532 2.6331 23.3169C3.39396 23.1687 4.335 22.2302 4.48733 21.4736C4.51802 21.3417 4.51011 21.2037 4.46454 21.0761C4.39745 20.8953 4.34906 20.7047 4.25998 20.5354C3.98477 20.0126 3.96526 19.4961 4.2061 18.9514C4.33095 18.6691 4.34189 18.3552 4.29881 18.0439C4.27867 17.9394 4.27867 17.832 4.2988 17.7275C4.51036 16.9186 4.7781 16.137 5.40822 15.5381C5.54068 15.4123 5.65658 15.2687 5.77737 15.1309C5.8129 15.0904 5.87673 15.0479 5.8342 14.9851C5.8139 14.9574 5.78452 14.9377 5.75118 14.9294C5.71784 14.9212 5.68267 14.9249 5.65178 14.9399C5.57907 14.9657 5.50871 14.9988 5.435 15.021C5.127 15.1136 4.81506 15.1844 4.49948 15.0644C4.33274 15.0009 4.17576 15.084 4.01298 15.0709C3.5573 15.0342 3.15248 14.8483 2.77718 14.6132C2.39912 14.3763 2.32737 14.0887 2.50518 13.6671C2.56184 13.5449 2.59153 13.4119 2.59223 13.2771C2.59293 13.1424 2.56463 13.0091 2.50925 12.8862C2.36156 12.5407 2.23792 12.1849 2.10508 11.8331C1.99327 11.5322 1.99011 11.2017 2.09616 10.8987C2.21952 10.5129 2.35018 10.1276 2.43846 9.73333C2.49427 9.48407 2.48088 9.2189 2.49408 8.96063C2.50874 8.67377 2.62916 8.44451 2.90436 8.35239C3.40944 8.18331 3.76568 7.81726 4.14332 7.475C4.42099 7.22335 4.76368 7.08857 5.10546 6.95574C5.85407 6.66482 6.56632 6.32187 7.18522 5.78822C7.62467 5.4093 8.19945 5.33731 8.75833 5.27756C9.00624 5.25105 9.25321 5.20189 9.50542 5.20471ZM7.17077 13.8255C7.99631 13.6153 8.39024 13.0062 8.72553 12.338C8.76483 12.2597 8.80303 12.1845 8.75245 12.0937C8.55124 11.7324 8.65245 11.4044 8.87859 11.0995C9.014 10.9169 8.96748 10.7841 8.83425 10.6155C8.49369 10.1845 8.03846 10.2388 7.59152 10.3045C7.26099 10.3532 6.91529 10.4262 6.71927 10.7478C6.42491 11.2308 6.54977 11.9622 6.97709 12.3261C7.05035 12.3884 7.12589 12.4484 7.19639 12.5137C7.39919 12.7017 7.47062 12.9149 7.36054 13.1884C7.27904 13.3909 7.23404 13.608 7.17078 13.8255L7.17077 13.8255Z" fill="#17171B"/>
</svg>
