<svg width="25" height="25" viewBox="0 0 25 25" fill="none" xmlns="http://www.w3.org/2000/svg">
<path d="M1.65012 14.0208C2.23008 14.0234 2.20825 14.0246 2.17754 13.4495C2.13463 12.6462 2.24185 11.8529 2.4251 11.0702C2.72922 9.77119 3.28648 8.59842 4.15278 7.57651C4.35544 7.33746 4.31615 7.02472 4.33513 6.74491C4.4276 5.38225 4.64012 4.04582 5.07786 2.74703C5.29113 2.11423 5.49841 1.48607 5.91513 0.946898C6.10724 0.698344 6.26673 0.614604 6.61361 0.722018C8.0962 1.1811 9.33259 2.03153 10.4891 3.02657C10.6812 3.19186 10.8168 3.4056 10.9772 3.59821C11.1544 3.81086 11.335 3.91738 11.6487 3.78335C12.5314 3.40629 13.452 3.17192 14.4263 3.21687C15.2535 3.25503 15.9587 3.58674 16.5652 4.12602C17.2025 4.69271 17.6715 5.36814 17.8661 6.2224C17.9786 6.71632 18.5937 7.11326 19.0984 7.13026C20.1116 7.16438 21.1124 7.27609 22.0976 7.5524C23.0151 7.80969 23.8984 8.12311 24.6925 8.65727C25.0149 8.87413 25.0776 9.08467 24.9096 9.42143C24.5397 10.163 24.1657 10.9051 23.6736 11.5741C23.0351 12.4423 22.2837 13.2027 21.3527 13.7598C21.058 13.9362 20.9085 14.1544 20.881 14.4938C20.8101 15.368 20.4803 16.1676 20.1702 16.9782C19.5665 18.5568 18.387 19.6581 17.1578 20.7239C16.9324 20.9193 16.891 21.2085 16.7327 21.4373C16.6597 21.5429 16.8283 21.5737 16.8994 21.6243C17.4246 21.9986 17.7844 22.5149 18.0578 23.0788C18.2531 23.4818 18.1057 23.8251 17.7371 24.0447C17.3105 24.3025 16.8008 24.3858 16.3143 24.2772C15.0972 24.0258 14.0066 23.5243 13.1276 22.621C13.0171 22.5075 12.8942 22.5104 12.7548 22.5317C11.4849 22.726 10.2407 22.6612 9.01985 22.2159C8.68711 22.0945 8.33408 22.0249 8.01566 21.8594C7.91086 21.805 7.83764 21.8428 7.75764 21.9141C6.53975 23.0006 5.08642 23.2036 3.53811 23.0162C3.33429 22.9915 3.1311 22.8909 2.94697 22.7901C2.64232 22.6233 2.53999 22.3032 2.62857 21.9362C2.7797 21.3102 3.26769 20.9678 3.74021 20.6171C4.08303 20.3627 4.47347 20.1902 4.86995 20.0364C5.03328 19.9731 5.09584 19.9261 4.93615 19.7693C4.21589 19.062 3.58109 18.2882 3.14576 17.3675C3.12092 17.3162 3.08499 17.2711 3.04056 17.2353C2.99613 17.1996 2.94431 17.1742 2.88886 17.161C1.87394 16.8259 0.972231 16.2152 0.284542 15.397C-0.173691 14.8626 -0.0788705 14.4668 0.571964 14.1928C0.91797 14.0471 1.2803 14.0126 1.65012 14.0208Z" fill="#17171B"/>
</svg>
