<svg width="25" height="25" viewBox="0 0 25 25" fill="none" xmlns="http://www.w3.org/2000/svg">
<path d="M20.0569 11.9573C19.83 11.7905 19.6372 11.7553 19.4609 11.6861C19.3693 11.6554 19.2847 11.6068 19.2122 11.5431C19.1396 11.4794 19.0804 11.4019 19.0382 11.315C18.8741 10.9661 18.7252 10.6078 18.5317 10.2757C18.3847 10.0232 18.3983 9.79786 18.4823 9.53613C18.6251 9.09107 18.6152 9.03089 18.1587 9.01251C17.4581 8.9843 17.1197 8.44572 16.6586 8.07577C16.3918 7.86176 16.1558 7.62286 16.1664 7.2398C16.1712 7.06797 16.0574 7.03111 15.9401 7.10812C15.5648 7.35437 15.2692 7.2129 14.9893 6.94445C14.8711 6.83109 14.7644 6.85109 14.6322 6.94191C14.2401 7.2112 13.7639 7.30976 13.3564 7.55306C13.2173 7.63612 13.0755 7.52647 12.9383 7.49536C12.7833 7.46021 12.6823 7.47831 12.7047 7.66301C12.7405 7.95879 12.5773 8.16333 12.3866 8.3436C11.9351 8.77047 11.5359 9.23418 11.2353 9.78284C11.1595 9.9239 11.054 10.0469 10.9262 10.1433C10.7983 10.2397 10.651 10.3072 10.4945 10.3413C10.1865 10.4155 9.89462 10.5546 9.57394 10.5773C9.4451 10.5864 9.42193 10.6674 9.40765 10.7715C9.3473 11.2109 9.28166 11.6506 9.29922 12.0953C9.31441 12.4799 9.17665 12.7554 8.828 12.9474C7.88364 13.4675 7.35865 14.3169 7.03641 15.3115C6.95142 15.5804 6.78065 15.814 6.55023 15.9766C6.12781 16.2806 5.69169 16.5656 5.26909 16.8694C5.02337 17.046 4.75213 17.0149 4.4878 16.9818C4.20102 16.9435 3.91146 16.9301 3.62238 16.9418C3.47243 16.9557 3.32165 16.9263 3.18784 16.8572C3.05403 16.7882 2.94278 16.6822 2.86723 16.552C2.7756 16.4083 2.66876 16.2937 2.48999 16.2672C2.45113 16.2631 2.41435 16.2476 2.38431 16.2226C1.86028 15.7021 1.2491 15.2642 0.84306 14.6316C0.619136 14.2827 0.624719 13.8971 0.736825 13.5146C0.891713 12.9861 0.92381 12.4737 0.617129 11.983C0.559057 11.89 0.593857 11.8032 0.653405 11.7154C0.7343 11.5962 0.795774 11.4639 0.873835 11.3425C1.00035 11.1458 1.01339 10.9737 0.810955 10.8117C0.693932 10.7181 0.687667 10.5812 0.722787 10.4395C0.841067 9.96225 0.953218 9.48345 1.07387 9.0068C1.11948 8.83852 1.19787 8.6809 1.30453 8.54297C1.52912 8.24109 1.76245 7.9451 1.97385 7.63421C2.18161 7.33048 2.46601 7.08711 2.7982 6.92879C3.01227 6.82304 3.12268 6.66725 3.14797 6.41156C3.23158 5.56663 3.2481 4.71837 3.29252 3.87195C3.34403 2.89048 3.45297 1.91132 3.42002 0.925161C3.40835 0.575967 3.77751 0.268263 4.11959 0.300677C4.29772 0.317554 4.35908 0.441564 4.3751 0.59988C4.43138 1.15611 4.47299 1.71427 4.54644 2.26822C4.65897 3.11698 4.73115 3.96983 4.85917 4.83247C4.92247 4.66961 5.00593 4.51143 5.04493 4.34294C5.12992 3.97575 5.36519 3.73543 5.66666 3.54379C6.0326 3.31117 6.41073 3.09646 6.76645 2.84934C7.19266 2.55324 7.65569 2.51372 8.14852 2.57454C8.7577 2.64971 8.75881 2.64545 9.013 2.10739C9.07065 1.98534 9.1307 1.86356 9.17636 1.73686C9.31262 1.35873 9.55971 1.10215 9.94767 0.975831C10.4854 0.800729 10.9502 0.48123 11.4224 0.183962C11.6312 0.0525145 11.8351 -0.0215166 12.0736 0.00554133C12.6404 0.0698447 13.2097 0.0607836 13.7779 0.0576868C14.1141 0.055854 14.3499 0.189463 14.5193 0.469018C14.6393 0.666961 14.7686 0.859294 14.8866 1.05835C14.9744 1.20639 15.0917 1.24481 15.2533 1.19835C15.4945 1.12899 15.7392 1.06817 15.9605 0.946786C16.0186 0.912206 16.0857 0.895839 16.1533 0.899797C16.2208 0.903756 16.2856 0.92786 16.3393 0.968996C16.7771 1.25005 17.2172 1.52755 17.6555 1.80776C17.7719 1.88212 17.8808 1.97913 17.9162 2.1092C17.9953 2.40043 18.194 2.3633 18.3883 2.28894C18.7392 2.15464 19.082 1.99941 19.4276 1.85148C19.9693 1.61962 20.5046 1.64747 20.9929 1.96497C21.5027 2.29643 21.9968 2.65416 22.5536 2.90208C22.8445 3.03162 23.0288 3.2352 23.1061 3.52756C23.3253 4.35646 23.5328 5.18851 23.7392 6.02071C23.7896 6.22366 23.6903 6.40049 23.5925 6.56641C23.4802 6.76895 23.3524 6.96249 23.2103 7.1453C23.0606 7.32719 23.1006 7.4505 23.2694 7.57479C23.3875 7.67401 23.5106 7.76714 23.6382 7.85379C23.8075 7.95038 23.9371 8.10384 24.0039 8.28691C24.1446 8.66566 24.2755 9.04793 24.3968 9.43375C24.4129 9.4942 24.4168 9.55724 24.4083 9.61922C24.3998 9.68119 24.3791 9.74087 24.3474 9.79477C24.0025 10.472 23.671 11.1561 23.3299 11.8354C23.2818 11.9311 23.3393 11.9797 23.385 12.0381C23.6166 12.3343 23.8318 12.6461 24.088 12.9193C24.284 13.1284 24.3425 13.3507 24.2745 13.6066C24.1508 14.0722 24.0085 14.533 23.8725 14.9953C23.8411 15.1021 23.7555 15.1697 23.6811 15.2452C23.3904 15.5402 23.077 15.8148 22.8559 16.1722C22.7741 16.3042 22.6418 16.363 22.4969 16.3954C22.4135 16.4199 22.3275 16.4342 22.2406 16.4378C21.6838 16.4216 21.3212 16.6273 21.2703 17.234C21.2549 17.417 21.1008 17.5215 20.9407 17.5658C20.4244 17.7085 19.9764 18.0676 19.4088 18.0473C19.3032 18.0436 19.2497 18.1084 19.2542 18.2133C19.2633 18.4281 19.1569 18.6024 19.0585 18.779C18.8052 19.2337 18.4698 19.5337 17.8963 19.4397C17.6249 19.3952 17.3617 19.3835 17.3144 19.7854C17.2995 19.9122 17.1352 20.0283 17.026 20.1359C16.7652 20.3928 16.5365 20.7496 16.2209 20.8666C15.8318 21.0109 15.8237 21.2916 15.7273 21.5708C15.7022 21.6435 15.6865 21.7283 15.6384 21.7829C15.2927 22.1763 15.5559 22.5347 15.7024 22.8933C15.7686 23.0553 16.0054 22.9656 16.0953 23.1006C16.2112 23.2747 16.3326 23.1849 16.4876 23.1711C17.1429 23.1127 17.8353 22.8955 18.3987 23.4592C18.5161 23.5766 18.589 23.5514 18.6587 23.4122C18.8409 23.0484 19.6087 22.9794 19.884 23.3525C20.0391 23.5627 19.974 23.8426 19.9285 24.0826C19.8565 24.4628 19.405 24.736 19.0338 24.6392C18.8463 24.5903 18.7295 24.6558 18.5658 24.7454C18.1333 24.9921 17.6225 25.0629 17.1392 24.9431C16.8603 24.8727 16.5944 24.75 16.3243 24.6467C16.2443 24.6161 16.1508 24.5892 16.114 24.5036C16.0246 24.2963 15.9377 24.2648 15.6858 24.3325C15.4213 24.4036 15.1279 24.1966 14.9432 23.9784C14.8326 23.8477 14.7298 23.803 14.5784 23.7545C14.2818 23.6596 13.9488 23.5652 13.9619 23.1414C13.9651 23.0398 13.9139 22.996 13.8148 23.0432C13.6778 23.1086 13.5443 23.0676 13.4222 23.0159C13.0071 22.8336 12.6103 22.6123 12.2372 22.3548C12.1262 22.2742 12.051 22.1536 12.0274 22.0185C12.0007 21.8665 11.9643 21.7164 11.9183 21.5691C11.7814 21.2035 11.8307 20.8777 12.0679 20.5668C12.138 20.4624 12.1878 20.3458 12.2148 20.2231C12.3264 19.8136 12.5111 19.4738 12.9499 19.3323C13.1664 19.2625 13.2274 19.1009 13.2027 18.8761C13.1842 18.646 13.18 18.4149 13.1903 18.1843C13.1904 18.1168 13.2103 18.0507 13.2474 17.9943C13.4929 17.6608 13.7443 17.3315 13.9969 17.0032C14.0413 16.9392 14.1039 16.8901 14.1766 16.862C14.2492 16.8339 14.3286 16.8283 14.4045 16.8457C14.4812 16.8549 14.5585 16.8573 14.6356 16.8528C15.0812 16.8539 15.0812 16.8536 15.1314 16.4231C15.135 16.3654 15.1416 16.3079 15.1513 16.2509C15.2365 15.8747 16.2623 15.1474 16.6473 15.1882C17.1009 15.2364 17.0541 15.2009 17.2762 14.8205C17.6057 14.2561 18.1387 13.8552 18.6179 13.4173C18.6654 13.3739 18.7651 13.3781 18.8408 13.3769C18.8673 13.3796 18.894 13.3769 18.9195 13.369C18.9449 13.361 18.9685 13.3481 18.9888 13.3308C19.0091 13.3136 19.0257 13.2924 19.0376 13.2686C19.0495 13.2448 19.0565 13.2188 19.0582 13.1923C19.1551 12.6238 19.4245 12.1822 20.0569 11.9573Z" fill="#17171B"/>
</svg>
