<svg width="25" height="25" viewBox="0 0 25 25" fill="none" xmlns="http://www.w3.org/2000/svg">
<path d="M4.3023 12.5041C4.02905 12.5554 3.79591 12.5829 3.67887 12.85C3.60749 13.0129 3.48599 13.0623 3.34224 12.9085C3.17191 12.7262 3.03777 12.8091 2.91715 12.971C2.89413 13.0019 2.87743 13.0377 2.85326 13.0675C2.78297 13.1543 2.73279 13.2917 2.59021 13.2491C2.47607 13.215 2.46524 13.0896 2.43826 12.987C2.42196 12.925 2.4563 12.851 2.38344 12.7884C2.32444 12.8303 2.26617 12.8778 2.2024 12.916C2.0411 13.0127 1.94026 12.9596 1.92111 12.7786C1.90768 12.6517 1.93007 12.518 1.73612 12.5237C1.70996 12.5245 1.65441 12.4625 1.65954 12.4515C1.75754 12.2407 1.58243 11.9961 1.68817 11.8191C2.04275 11.2256 2.2984 10.5761 2.73553 10.0284C3.3177 9.29908 3.99589 8.67701 4.73166 8.10758C5.60999 7.42782 6.587 6.93199 7.60522 6.5085C7.75143 6.44769 7.8516 6.36547 7.89421 6.21406C7.89919 6.19529 7.90773 6.17765 7.91937 6.16211C8.38602 5.57103 8.42529 4.8543 8.52036 4.15112C8.57805 3.70019 8.70782 3.26147 8.9047 2.85172C9.07202 2.50879 9.15282 2.48534 9.51365 2.59013C10.1315 2.76956 10.7163 3.00893 11.2006 3.44838C11.3126 3.55 11.4371 3.55142 11.5788 3.51562C12.5862 3.26119 13.5691 3.32852 14.5197 3.75985C14.6738 3.82982 14.7932 3.81181 14.9477 3.72592C15.5886 3.36982 16.2345 3.01175 16.9922 2.97171C17.4155 2.94935 17.505 3.00323 17.5796 3.42779C17.6988 4.10605 17.6824 4.79424 17.611 5.47557C17.5502 6.05656 17.5302 6.04793 18.0669 6.30032C19.5334 6.98997 20.9027 7.83493 22.068 8.96847C22.9326 9.80951 23.7363 10.7106 24.353 11.7591C24.5374 12.0726 24.6501 12.4204 24.8657 12.7252C24.9553 12.8518 25.1484 13.1605 24.798 13.3224C24.7025 13.3665 24.7538 13.4558 24.7682 13.5288C24.8283 13.8336 24.8156 13.8448 24.5033 13.7602C24.4669 13.7504 24.4313 13.738 24.3974 13.7274C24.3362 13.8018 24.3972 13.8622 24.4012 13.9251C24.4116 14.0917 24.3265 14.1379 24.1855 14.0821C24.0894 14.0371 23.9966 13.9856 23.9076 13.9279C23.5917 13.7489 23.4365 13.7797 23.2267 14.0634C23.0597 14.2893 22.9281 14.2888 22.8566 14.0186C22.773 13.7026 22.558 13.6411 22.2941 13.5773C22.0557 13.5197 22.0543 13.6034 22.0998 13.7907C22.2295 14.3246 22.4232 14.8484 22.463 15.3973C22.4982 15.8831 22.7313 16.323 22.7396 16.809C22.7424 16.9668 22.8922 16.9911 22.9738 17.0784C23.29 17.4163 23.6048 17.4609 23.9632 17.1313C24.0581 17.0441 24.2124 16.9434 24.3573 17.0568C24.4834 17.1554 24.4583 17.3216 24.4084 17.4351C24.112 18.11 24.2765 18.8419 24.1439 19.5229C23.8734 20.9122 23.0337 21.8648 21.6431 22.2909C21.0387 22.4761 20.4433 22.5312 19.8245 22.369C19.3421 22.2503 18.9223 21.954 18.6488 21.5392C18.5433 21.383 18.4395 21.3092 18.2447 21.3593C17.3979 21.5769 16.5582 21.4838 15.7273 21.2682C15.3743 21.1709 15.0029 21.1605 14.645 21.2379C13.428 21.5019 12.1947 21.5734 10.9684 21.3381C10.4271 21.2396 9.89706 21.0872 9.38615 20.8831C9.13515 20.7822 8.85825 20.7651 8.59674 20.8344C7.93558 20.9832 7.26439 21.0559 6.58576 20.9673C6.41396 20.9449 6.27489 20.9545 6.15533 21.1169C5.79652 21.6042 5.28015 21.8315 4.7018 21.9273C2.84753 22.2343 1.15217 20.9354 0.614281 19.5046C0.601475 19.4786 0.591326 19.4514 0.583987 19.4233C0.4968 18.8051 0.310974 18.2049 0.0335954 17.6456C-0.0616494 17.458 0.0565353 17.3539 0.250874 17.3453C0.327952 17.3404 0.405326 17.3479 0.479971 17.3678C0.705828 17.4342 0.844816 17.3361 1.00841 17.1804C1.28555 16.9167 1.43277 16.639 1.40141 16.2445C1.38 15.9753 1.55341 15.8878 1.80266 15.9929C1.83989 16.0037 1.87403 16.0232 1.90231 16.0497C2.21497 16.4508 2.65373 16.3437 3.06724 16.3465C3.19986 16.3474 3.27522 16.2879 3.34753 16.1829C3.55009 15.9009 3.67134 15.5688 3.69804 15.2226C3.76832 14.3465 3.9601 13.4845 4.26787 12.6612C4.28211 12.6095 4.2936 12.5571 4.3023 12.5041Z" fill="#17171B"/>
</svg>
