<svg width="25" height="25" viewBox="0 0 25 25" fill="none" xmlns="http://www.w3.org/2000/svg">
<path d="M17.1357 6.48185C17.1173 6.88325 17.1359 7.28864 17.0731 7.6904C17.0526 7.82133 17.0435 7.94998 17.1663 8.06168C18.0358 8.85225 18.4336 9.88009 18.6272 11.0072C18.8035 12.0334 18.7449 13.0565 18.4051 14.0311C17.9995 15.1945 17.3806 16.2347 16.2778 16.8945C16.1507 16.9706 16.1146 17.0491 16.1286 17.1957C16.1521 17.4936 16.1386 17.7932 16.0884 18.0878C15.9944 18.7051 16.3662 19.1288 16.7693 19.5072C17.4681 20.1687 18.3589 20.5913 19.3133 20.7139C20.1937 20.8345 20.9946 20.6073 21.72 20.1034C21.9349 19.9541 22.1953 19.8389 22.171 19.5019C22.1651 19.4205 22.2494 19.3707 22.3264 19.3491C22.5859 19.2762 22.5601 19.1365 22.4812 18.9168C22.1688 18.0467 22.1513 17.1409 22.2166 16.2304C22.2422 15.7779 22.3279 15.3309 22.4716 14.9011C22.6284 14.4227 22.9072 13.9934 23.2803 13.6554C23.5818 13.386 23.9344 13.2436 24.3178 13.3789C24.7181 13.5202 24.8764 13.879 24.9473 14.2819C25.128 15.3093 24.8161 16.2546 24.4383 17.1768C24.1797 17.8081 23.9391 18.4541 23.55 19.0249C23.474 19.136 23.392 19.243 23.3045 19.3454C23.2424 19.4183 23.2164 19.4835 23.2582 19.5797C23.3879 19.8777 23.2779 20.1249 23.0745 20.3441C22.9952 20.4296 22.9075 20.5042 22.9149 20.6373C22.9373 21.0443 22.7522 21.3897 22.5576 21.7206C22.3386 22.093 22.0886 22.448 21.8392 22.8015C21.608 23.124 21.3127 23.3951 20.9718 23.598C20.2789 24.0212 19.5664 24.3843 18.7795 24.621C16.8553 25.1998 14.9651 25.0314 13.0559 24.5315C11.691 24.1741 10.4988 23.5305 9.41853 22.6483C9.0507 22.3478 8.71446 22.016 8.47124 21.6029C8.36115 21.416 8.25024 21.4062 8.04517 21.493C6.84762 21.9996 5.72568 21.227 5.78566 19.9577C5.7891 19.8419 5.81912 19.7285 5.8734 19.6262C5.95222 19.4894 5.93005 19.3724 5.8762 19.2423C5.67178 18.7482 5.701 18.2812 6.05915 17.8634C6.15948 17.7463 6.10503 17.6757 6.01619 17.599C5.98239 17.5716 5.94272 17.5524 5.90029 17.5429C5.85785 17.5333 5.81378 17.5337 5.77151 17.5439C4.8479 17.6846 4.21913 16.882 4.13187 16.1156C4.07365 15.6043 4.12237 15.11 4.5083 14.7125C4.53671 14.6795 4.55827 14.6411 4.57174 14.5997C4.58521 14.5582 4.59031 14.5145 4.58676 14.4711C4.59826 14.0537 4.7209 13.647 4.94204 13.2929C5.04197 13.124 4.98697 13.0679 4.83449 12.9959C4.23583 12.7131 3.6874 12.3659 3.29484 11.8082C2.83072 11.1487 2.579 10.4284 2.60899 9.61821C2.62374 9.44516 2.58022 9.27215 2.48535 9.12669C1.87888 8.22047 1.75006 7.20718 1.81681 6.14486C1.85907 5.45289 2.01935 4.77324 2.29072 4.1353C2.3799 3.92498 2.31006 3.85854 2.10401 3.80264C1.7135 3.69655 1.32885 3.56994 0.951664 3.42336C0.675299 3.3178 0.436915 3.13183 0.26728 2.88945C0.0976452 2.64708 0.00454648 2.35943 0 2.06362C0.0017257 1.38485 0.919147 0.506356 1.77779 0.97507C2.38928 1.30887 2.92614 1.75469 3.53328 2.09437C3.71678 2.19703 3.82694 2.18857 3.99109 2.06519C4.59134 1.61401 5.17759 1.14296 5.85596 0.802485C6.30936 0.57492 6.79325 0.453731 7.27087 0.30219C8.41744 -0.0615912 9.59306 0.0110062 10.7664 0.0383995C11.1486 0.0473205 11.5057 0.192847 11.8554 0.31817C12.8474 0.67364 13.8009 1.12375 14.6286 1.785C15.4101 2.40938 16.0859 3.14535 16.4957 4.06972C16.8344 4.8338 17.1654 5.61266 17.1357 6.48185Z" fill="#17171B"/>
</svg>
