<svg width="25" height="25" viewBox="0 0 25 25" fill="none" xmlns="http://www.w3.org/2000/svg">
<path d="M9.19526 21.9936C8.80315 21.7754 8.42482 21.5682 8.05024 21.3544C7.94354 21.2936 7.86932 21.3245 7.79586 21.4035C7.02861 22.2288 5.99599 22.4503 4.95367 22.6293C4.2103 22.7569 3.45237 22.6964 2.70171 22.7412C1.86511 22.7912 1.04322 22.8656 0.345004 23.4026C0.171774 23.5358 0.07211 23.431 0.0337572 23.2637C-0.0210206 23.0362 -0.00893336 22.7978 0.0685663 22.577C0.76598 20.6418 2.01013 19.2692 4.05254 18.7211C4.70528 18.5428 5.38164 18.4663 6.05771 18.4944C6.30334 18.5053 6.40348 18.4443 6.38546 18.1734C6.28476 16.6594 6.83338 15.3423 7.63619 14.1008C8.84758 12.2273 10.0637 10.3553 10.7608 8.20841C11.0136 7.4297 11.016 7.42741 10.2273 7.27909C9.72275 7.18421 9.22524 7.06715 8.76295 6.83676C8.53277 6.72204 8.28421 6.70349 8.03809 6.65836C7.5058 6.56076 7.40376 6.43471 7.40232 5.81005C7.40054 5.03797 7.74095 4.39047 8.22108 3.81698C8.47221 3.51701 8.61295 3.23586 8.39968 2.8569C8.32582 2.72565 8.30371 2.56447 8.26291 2.41561C8.19954 2.18445 8.30503 2.02038 8.48854 1.89931C8.67048 1.77928 8.82237 1.86406 8.95211 1.99709C9.0347 2.09675 9.12635 2.18854 9.2259 2.27127C9.15672 1.76885 9.32567 1.35518 9.62146 1.00236C10.2393 0.265441 11.2649 0.278025 11.8909 1.01302C12.0569 1.20294 12.1812 1.42555 12.2558 1.66648C12.2928 1.79029 12.3155 1.91781 12.4615 1.95366C12.6113 1.99045 12.6556 1.85547 12.7264 1.77129C13.2531 1.14451 13.9479 0.929776 14.6402 1.18228C15.3274 1.43294 15.9623 2.29554 15.963 2.97932C15.9637 3.63194 15.4299 4.34585 14.7575 4.5645C14.5746 4.62398 14.4623 4.71429 14.4786 4.90737C14.5244 5.44965 14.3075 5.9305 14.1297 6.41809C13.6895 7.62481 13.2693 8.83697 13.0085 10.098C12.9812 10.2302 12.9597 10.3636 12.9384 10.4969C12.8405 11.1104 12.8386 11.117 13.4042 11.3172C13.5755 11.3779 13.7292 11.5964 13.8801 11.5242C13.9992 11.4671 14.0213 11.2229 14.1041 11.0715C14.2709 10.7661 14.6229 10.6849 15.1103 10.8265C15.453 10.9261 15.535 11.0486 15.5216 11.4499C15.5113 11.7586 15.503 12.0676 15.4827 12.3757C15.4738 12.5117 15.5169 12.5937 15.6429 12.6472C15.7856 12.7062 15.9241 12.7747 16.0575 12.8523C16.3798 13.0444 16.6717 13.1407 16.9489 12.7605C17.082 12.578 17.28 12.6259 17.4698 12.7384C17.7143 12.8833 17.9234 13.0734 17.8319 13.3598C17.7079 13.7479 17.8369 13.9971 18.1146 14.2448C18.4018 14.5055 18.6359 14.8193 18.8041 15.1688C18.8984 15.3599 19.0137 15.4463 19.2405 15.3562C19.536 15.2387 19.7722 15.3836 19.9512 15.6054C20.1344 15.8322 20.212 16.1079 20.0074 16.3504C19.6238 16.8051 19.6372 17.2921 19.7931 17.8216C19.8975 18.1761 20.1097 18.3793 20.4755 18.3774C21.2763 18.3734 21.9478 18.7383 22.605 19.129C23.3513 19.5726 24.0443 20.1035 24.8247 20.4926C24.9076 20.5339 25.0126 20.585 24.9988 20.701C24.9895 20.7638 24.9624 20.8226 24.9206 20.8705C24.8789 20.9183 24.8242 20.9532 24.7632 20.9709C24.3355 21.1235 23.8888 21.2161 23.4357 21.246C23.1413 21.2713 22.8468 21.2953 22.5042 21.3239C22.8996 21.6211 23.2806 21.8649 23.589 22.195C23.7388 22.3453 23.8777 22.5061 24.0048 22.6761C24.1541 22.8898 24.0806 23.0422 23.8239 23.035C23.0865 23.0142 22.362 23.1418 21.6313 23.1956C20.8234 23.255 20.1218 22.9403 19.4482 22.5396C19.353 22.483 19.2741 22.3876 19.1243 22.3897C19.2063 22.8095 19.4095 23.171 19.5739 23.5453C19.7983 24.0562 19.7054 24.1859 19.1335 24.1607C17.964 24.1077 16.8139 23.8422 15.7396 23.3771C15.3911 23.2341 15.0292 23.1262 14.6594 23.0549C14.5715 23.0305 14.4782 23.0337 14.3922 23.0642C14.3062 23.0946 14.2317 23.1508 14.1787 23.2251C13.7974 23.6854 13.2683 23.8545 12.6939 23.9102C12.0973 23.9681 11.4985 23.9688 10.8999 23.9704C10.0992 23.9726 9.32082 24.0726 8.61508 24.4918C8.44421 24.5932 8.32544 24.5455 8.24661 24.3657C8.16389 24.1912 8.13589 23.9956 8.16628 23.8049C8.27657 23.1258 8.6297 22.586 9.09534 22.1046C9.1273 22.0715 9.15696 22.0362 9.19526 21.9936Z" fill="#17171B"/>
</svg>
