<svg width="25" height="25" viewBox="0 0 25 25" fill="none" xmlns="http://www.w3.org/2000/svg">
<path fill-rule="evenodd" clip-rule="evenodd" d="M11.3341 7.4863C10.9262 8.65864 9.81133 9.5 8.5 9.5C7.18867 9.5 6.07385 8.65864 5.6659 7.4863C5.61194 7.49531 5.55652 7.5 5.5 7.5H3.5C2.94772 7.5 2.5 7.05228 2.5 6.5C2.5 5.94772 2.94772 5.5 3.5 5.5H5.5C5.55652 5.5 5.61194 5.50469 5.6659 5.5137C6.07385 4.34136 7.18867 3.5 8.5 3.5C9.81133 3.5 10.9262 4.34136 11.3341 5.5137C11.3881 5.50469 11.4435 5.5 11.5 5.5H21.5C22.0523 5.5 22.5 5.94772 22.5 6.5C22.5 7.05228 22.0523 7.5 21.5 7.5H11.5C11.4435 7.5 11.3881 7.49531 11.3341 7.4863ZM9.5 6.5C9.5 7.05228 9.05228 7.5 8.5 7.5C7.94772 7.5 7.5 7.05228 7.5 6.5C7.5 5.94772 7.94772 5.5 8.5 5.5C9.05228 5.5 9.5 5.94772 9.5 6.5Z" fill="#17171B"/>
<path fill-rule="evenodd" clip-rule="evenodd" d="M2.5 18.5C2.5 17.9477 2.94772 17.5 3.5 17.5H5.5C5.55652 17.5 5.61194 17.5047 5.6659 17.5137C6.07385 16.3414 7.18867 15.5 8.5 15.5C9.81133 15.5 10.9262 16.3414 11.3341 17.5137C11.3881 17.5047 11.4435 17.5 11.5 17.5H21.5C22.0523 17.5 22.5 17.9477 22.5 18.5C22.5 19.0523 22.0523 19.5 21.5 19.5H11.5C11.4435 19.5 11.3881 19.4953 11.3341 19.4863C10.9262 20.6586 9.81133 21.5 8.5 21.5C7.18867 21.5 6.07385 20.6586 5.6659 19.4863C5.61194 19.4953 5.55652 19.5 5.5 19.5H3.5C2.94772 19.5 2.5 19.0523 2.5 18.5ZM9.5 18.5C9.5 19.0523 9.05228 19.5 8.5 19.5C7.94772 19.5 7.5 19.0523 7.5 18.5C7.5 17.9477 7.94772 17.5 8.5 17.5C9.05228 17.5 9.5 17.9477 9.5 18.5Z" fill="#17171B"/>
<path fill-rule="evenodd" clip-rule="evenodd" d="M21.5 11.5C22.0523 11.5 22.5 11.9477 22.5 12.5C22.5 13.0523 22.0523 13.5 21.5 13.5H19.5C19.4435 13.5 19.3881 13.4953 19.3341 13.4863C18.9262 14.6586 17.8113 15.5 16.5 15.5C15.1887 15.5 14.0738 14.6586 13.6659 13.4863C13.6119 13.4953 13.5565 13.5 13.5 13.5H3.5C2.94772 13.5 2.5 13.0523 2.5 12.5C2.5 11.9477 2.94772 11.5 3.5 11.5H13.5C13.5565 11.5 13.6119 11.5047 13.6659 11.5137C14.0738 10.3414 15.1887 9.5 16.5 9.5C17.8113 9.5 18.9262 10.3414 19.3341 11.5137C19.3881 11.5047 19.4435 11.5 19.5 11.5H21.5ZM16.5 13.5C17.0523 13.5 17.5 13.0523 17.5 12.5C17.5 11.9477 17.0523 11.5 16.5 11.5C15.9477 11.5 15.5 11.9477 15.5 12.5C15.5 13.0523 15.9477 13.5 16.5 13.5Z" fill="#17171B"/>
</svg>
