<svg width="25" height="25" viewBox="0 0 25 25" fill="none" xmlns="http://www.w3.org/2000/svg">
<path d="M3.7835 11.2232H18.1201L11.8567 4.95975C11.3561 4.45919 11.3561 3.63775 11.8567 3.13719C11.9754 3.01821 12.1165 2.92381 12.2717 2.8594C12.427 2.79499 12.5935 2.76184 12.7615 2.76184C12.9296 2.76184 13.0961 2.79499 13.2514 2.8594C13.4066 2.92381 13.5477 3.01821 13.6664 3.13719L22.1246 11.5954C22.2436 11.7142 22.338 11.8552 22.4024 12.0105C22.4668 12.1657 22.5 12.3322 22.5 12.5003C22.5 12.6684 22.4668 12.8348 22.4024 12.9901C22.338 13.1454 22.2436 13.2864 22.1246 13.4052L13.6664 21.8634C13.5476 21.9822 13.4065 22.0765 13.2513 22.1408C13.096 22.2051 12.9296 22.2382 12.7615 22.2382C12.5935 22.2382 12.4271 22.2051 12.2718 22.1408C12.1166 22.0765 11.9755 21.9822 11.8567 21.8634C11.7379 21.7446 11.6436 21.6035 11.5793 21.4482C11.515 21.293 11.4819 21.1266 11.4819 20.9585C11.4819 20.7905 11.515 20.6241 11.5793 20.4688C11.6436 20.3136 11.7379 20.1725 11.8567 20.0537L18.1201 13.7902H3.7835C3.07757 13.7902 2.5 13.2126 2.5 12.5067C2.5 11.8008 3.07757 11.2232 3.7835 11.2232Z" fill="#17171B"/>
</svg>
