<svg width="25" height="25" viewBox="0 0 25 25" fill="none" xmlns="http://www.w3.org/2000/svg">
<path d="M22.5 4.64286C22.5 5.82632 21.5406 6.78571 20.3571 6.78571C19.1737 6.78571 18.2143 5.82632 18.2143 4.64286C18.2143 3.45939 19.1737 2.5 20.3571 2.5C21.5406 2.5 22.5 3.45939 22.5 4.64286Z" fill="#17171B"/>
<path d="M4.64286 8.21429C5.82632 8.21429 6.78571 7.2549 6.78571 6.07143C6.78571 4.88796 5.82632 3.92857 4.64286 3.92857C3.45939 3.92857 2.5 4.88796 2.5 6.07143C2.5 7.2549 3.45939 8.21429 4.64286 8.21429Z" fill="#17171B"/>
<path d="M11.7857 8.21429C12.9692 8.21429 13.9286 7.2549 13.9286 6.07143C13.9286 4.88796 12.9692 3.92857 11.7857 3.92857C10.6022 3.92857 9.64286 4.88796 9.64286 6.07143C9.64286 7.2549 10.6022 8.21429 11.7857 8.21429Z" fill="#17171B"/>
<path d="M4.64286 15.3571C5.82632 15.3571 6.78571 14.3978 6.78571 13.2143C6.78571 12.0308 5.82632 11.0714 4.64286 11.0714C3.45939 11.0714 2.5 12.0308 2.5 13.2143C2.5 14.3978 3.45939 15.3571 4.64286 15.3571Z" fill="#17171B"/>
<path d="M13.9286 13.2143C13.9286 14.3978 12.9692 15.3571 11.7857 15.3571C10.6022 15.3571 9.64286 14.3978 9.64286 13.2143C9.64286 12.0308 10.6022 11.0714 11.7857 11.0714C12.9692 11.0714 13.9286 12.0308 13.9286 13.2143Z" fill="#17171B"/>
<path d="M18.9286 15.3571C20.112 15.3571 21.0714 14.3978 21.0714 13.2143C21.0714 12.0308 20.112 11.0714 18.9286 11.0714C17.7451 11.0714 16.7857 12.0308 16.7857 13.2143C16.7857 14.3978 17.7451 15.3571 18.9286 15.3571Z" fill="#17171B"/>
<path d="M6.78571 20.3571C6.78571 21.5406 5.82632 22.5 4.64286 22.5C3.45939 22.5 2.5 21.5406 2.5 20.3571C2.5 19.1737 3.45939 18.2143 4.64286 18.2143C5.82632 18.2143 6.78571 19.1737 6.78571 20.3571Z" fill="#17171B"/>
<path d="M11.7857 22.5C12.9692 22.5 13.9286 21.5406 13.9286 20.3571C13.9286 19.1737 12.9692 18.2143 11.7857 18.2143C10.6022 18.2143 9.64286 19.1737 9.64286 20.3571C9.64286 21.5406 10.6022 22.5 11.7857 22.5Z" fill="#17171B"/>
<path d="M21.0714 20.3571C21.0714 21.5406 20.112 22.5 18.9286 22.5C17.7451 22.5 16.7857 21.5406 16.7857 20.3571C16.7857 19.1737 17.7451 18.2143 18.9286 18.2143C20.112 18.2143 21.0714 19.1737 21.0714 20.3571Z" fill="#17171B"/>
</svg>
