<svg width="25" height="25" viewBox="0 0 25 25" fill="none" xmlns="http://www.w3.org/2000/svg">
<path fill-rule="evenodd" clip-rule="evenodd" d="M15.2347 17.0288C13.9122 17.9881 12.2857 18.5538 10.5269 18.5538C6.09374 18.5538 2.5 14.96 2.5 10.5269C2.5 6.09374 6.09374 2.5 10.5269 2.5C14.96 2.5 18.5538 6.09374 18.5538 10.5269C18.5538 12.2854 17.9884 13.9119 17.0291 15.2344C17.1552 15.2971 17.2731 15.381 17.3783 15.4862L22.1083 20.2162C22.6306 20.7385 22.6306 21.5857 22.1083 22.108C21.5857 22.6306 20.7388 22.6306 20.2162 22.108L15.4865 17.3783C15.3814 17.2731 15.2974 17.1549 15.2347 17.0288ZM15.8781 10.5269C15.8781 13.4824 13.4824 15.8781 10.5269 15.8781C7.57134 15.8781 5.17563 13.4824 5.17563 10.5269C5.17563 7.57135 7.57134 5.17563 10.5269 5.17563C13.4824 5.17563 15.8781 7.57135 15.8781 10.5269Z" fill="#17171B"/>
</svg>
