<svg width="25" height="25" viewBox="0 0 25 25" fill="none" xmlns="http://www.w3.org/2000/svg">
<path d="M6.58881 7.36734L6.31268 7.08168V17.9182L6.58881 17.6326C6.6776 17.5438 6.78299 17.4733 6.89899 17.4253C7.01499 17.3773 7.13932 17.3525 7.26487 17.3525C7.39043 17.3525 7.51476 17.3773 7.63075 17.4253C7.74675 17.4733 7.85215 17.5438 7.94093 17.6326C8.02971 17.7213 8.10014 17.8267 8.14819 17.9427C8.19623 18.0587 8.22096 18.1831 8.22096 18.3086C8.22096 18.4342 8.19623 18.5585 8.14819 18.6745C8.10014 18.7905 8.02971 18.8959 7.94093 18.9847L6.03654 20.8891C5.94598 20.9758 5.8392 21.0437 5.72232 21.089C5.60834 21.1394 5.4851 21.1654 5.36048 21.1654C5.23587 21.1654 5.11263 21.1394 4.99865 21.089C4.88176 21.0437 4.77498 20.9758 4.68442 20.8891L2.78003 18.9847C2.60073 18.8054 2.5 18.5622 2.5 18.3086C2.5 18.055 2.60073 17.8119 2.78003 17.6326C2.95933 17.4533 3.20252 17.3525 3.45609 17.3525C3.70966 17.3525 3.95285 17.4533 4.13215 17.6326L4.40829 17.9182V7.08168L4.13215 7.36734C3.95285 7.54664 3.70966 7.64737 3.45609 7.64737C3.20252 7.64737 2.95933 7.54664 2.78003 7.36734C2.60073 7.18804 2.5 6.94485 2.5 6.69128C2.5 6.43771 2.60073 6.19452 2.78003 6.01522L4.68442 4.11083C4.77498 4.02414 4.88176 3.95619 4.99865 3.91087C5.11263 3.86049 5.23587 3.83447 5.36048 3.83447C5.4851 3.83447 5.60834 3.86049 5.72232 3.91087C5.8392 3.95619 5.94598 4.02414 6.03654 4.11083L7.94093 6.01522C8.02971 6.104 8.10014 6.2094 8.14819 6.3254C8.19623 6.4414 8.22096 6.56573 8.22096 6.69128C8.22096 6.81684 8.19623 6.94116 8.14819 7.05716C8.10014 7.17316 8.02971 7.27856 7.94093 7.36734C7.85215 7.45612 7.74675 7.52655 7.63075 7.57459C7.51476 7.62264 7.39043 7.64737 7.26487 7.64737C7.13932 7.64737 7.01499 7.62264 6.89899 7.57459C6.78299 7.52655 6.6776 7.45612 6.58881 7.36734Z" fill="#17171B"/>
<path d="M13.0259 17.3086H21.5478C21.8003 17.3086 22.0425 17.4089 22.2211 17.5875C22.3997 17.7661 22.5 18.0083 22.5 18.2608C22.5 18.5133 22.3997 18.7555 22.2211 18.9341C22.0425 19.1127 21.8003 19.213 21.5478 19.213H13.0259C12.7733 19.213 12.5311 19.1127 12.3525 18.9341C12.174 18.7555 12.0737 18.5133 12.0737 18.2608C12.0737 18.0083 12.174 17.7661 12.3525 17.5875C12.5311 17.4089 12.7733 17.3086 13.0259 17.3086Z" fill="#17171B"/>
<path d="M13.0259 11.3086H19.5479C19.8004 11.3086 20.0426 11.4089 20.2212 11.5875C20.3998 11.7661 20.5001 12.0083 20.5001 12.2608C20.5001 12.5133 20.3998 12.7555 20.2212 12.9341C20.0426 13.1127 19.8004 13.213 19.5479 13.213H13.0259C12.7734 13.213 12.5312 13.1127 12.3526 12.9341C12.1741 12.7555 12.0737 12.5133 12.0737 12.2608C12.0737 12.0083 12.1741 11.7661 12.3526 11.5875C12.5312 11.4089 12.7734 11.3086 13.0259 11.3086Z" fill="#17171B"/>
<path d="M13.0259 5.30859H17.5479C17.8004 5.30859 18.0426 5.40891 18.2212 5.58748C18.3998 5.76606 18.5001 6.00825 18.5001 6.26079C18.5001 6.51333 18.3998 6.75552 18.2212 6.93409C18.0426 7.11266 17.8004 7.21299 17.5479 7.21299H13.0259C12.7734 7.21299 12.5312 7.11266 12.3526 6.93409C12.1741 6.75552 12.0737 6.51333 12.0737 6.26079C12.0737 6.00825 12.1741 5.76606 12.3526 5.58748C12.5312 5.40891 12.7734 5.30859 13.0259 5.30859Z" fill="#17171B"/>
</svg>
